0
SECTION
2
ENTITIES
0
LWPOLYLINE
8
CUT
90
2
70
0
10
233
20
27.3
10
233
20
128.3
0
LWPOLYLINE
8
CUT
90
2
70
0
10
5.25
20
27.3
10
15
20
27.3
0
LWPOLYLINE
8
CUT
90
2
70
0
10
15
20
128.3
10
5.25
20
128.3
0
LWPOLYLINE
8
CUT
90
2
70
0
10
5.25
20
128.3
10
0
20
123.05
0
LWPOLYLINE
8
CUT
90
2
70
0
10
0
20
123.05
10
0
20
32.55
0
LWPOLYLINE
8
CUT
90
2
70
0
10
0
20
32.55
10
5.25
20
27.3
0
LWPOLYLINE
8
CUT
90
2
70
0
10
59
20
27.3
10
53.72
20
9.8
0
LWPOLYLINE
8
CUT
90
2
70
0
10
53.72
20
9.8
10
20.28
20
9.8
0
LWPOLYLINE
8
CUT
90
2
70
0
10
20.28
20
9.8
10
15
20
27.3
0
LWPOLYLINE
8
CUT
90
2
70
0
10
168
20
27.3
10
162.72
20
9.8
0
LWPOLYLINE
8
CUT
90
2
70
0
10
162.72
20
9.8
10
129.28
20
9.8
0
LWPOLYLINE
8
CUT
90
2
70
0
10
129.28
20
9.8
10
124
20
27.3
0
LWPOLYLINE
8
CUT
90
2
70
0
10
124
20
27.3
10
118.8
20
10.374
0
LWPOLYLINE
8
CUT
90
2
70
0
10
118.8
20
10.374
10
120.5
20
0
0
LWPOLYLINE
8
CUT
90
2
70
0
10
120.5
20
0
10
62.5
20
0
0
LWPOLYLINE
8
CUT
90
2
70
0
10
62.5
20
0
10
64.2
20
10.374
0
LWPOLYLINE
8
CUT
90
2
70
0
10
64.2
20
10.374
10
59
20
27.3
0
LWPOLYLINE
8
CUT
90
2
70
0
10
233
20
27.3
10
225.2
20
9.8
0
LWPOLYLINE
8
CUT
90
2
70
0
10
225.2
20
9.8
10
175.8
20
9.8
0
LWPOLYLINE
8
CUT
90
2
70
0
10
175.8
20
9.8
10
168
20
27.3
0
LWPOLYLINE
8
CUT
90
2
70
0
10
59
20
128.3
10
53.72
20
145.8
0
LWPOLYLINE
8
CUT
90
2
70
0
10
53.72
20
145.8
10
20.28
20
145.8
0
LWPOLYLINE
8
CUT
90
2
70
0
10
20.28
20
145.8
10
15
20
128.3
0
LWPOLYLINE
8
CUT
90
2
70
0
10
168
20
128.3
10
162.72
20
145.8
0
LWPOLYLINE
8
CUT
90
2
70
0
10
162.72
20
145.8
10
129.28
20
145.8
0
LWPOLYLINE
8
CUT
90
2
70
0
10
129.28
20
145.8
10
124
20
128.3
0
LWPOLYLINE
8
CUT
90
2
70
0
10
233
20
128.3
10
227.8
20
145.226
0
LWPOLYLINE
8
CUT
90
2
70
0
10
227.8
20
145.226
10
229.5
20
155.6
0
LWPOLYLINE
8
CUT
90
2
70
0
10
229.5
20
155.6
10
171.5
20
155.6
0
LWPOLYLINE
8
CUT
90
2
70
0
10
171.5
20
155.6
10
173.2
20
145.226
0
LWPOLYLINE
8
CUT
90
2
70
0
10
173.2
20
145.226
10
168
20
128.3
0
LWPOLYLINE
8
CUT
90
2
70
0
10
124
20
128.3
10
116.2
20
145.8
0
LWPOLYLINE
8
CUT
90
2
70
0
10
116.2
20
145.8
10
66.8
20
145.8
0
LWPOLYLINE
8
CUT
90
2
70
0
10
66.8
20
145.8
10
59
20
128.3
0
LINE
8
CREASE
10
15
20
27.3
30
0
11
15
21
128.3
31
0
0
LINE
8
CREASE
10
59
20
27.3
30
0
11
59
21
128.3
31
0
0
LINE
8
CREASE
10
124
20
27.3
30
0
11
124
21
128.3
31
0
0
LINE
8
CREASE
10
168
20
27.3
30
0
11
168
21
128.3
31
0
0
LINE
8
CREASE
10
15
20
27.3
30
0
11
59
21
27.3
31
0
0
LINE
8
CREASE
10
59
20
27.3
30
0
11
124
21
27.3
31
0
0
LINE
8
CREASE
10
124
20
27.3
30
0
11
168
21
27.3
31
0
0
LINE
8
CREASE
10
168
20
27.3
30
0
11
233
21
27.3
31
0
0
LINE
8
CREASE
10
15
20
128.3
30
0
11
59
21
128.3
31
0
0
LINE
8
CREASE
10
59
20
128.3
30
0
11
124
21
128.3
31
0
0
LINE
8
CREASE
10
124
20
128.3
30
0
11
168
21
128.3
31
0
0
LINE
8
CREASE
10
168
20
128.3
30
0
11
233
21
128.3
31
0
0
TEXT
8
LABEL
10
91.5
20
77.8
30
0
40
4
1
Front
0
TEXT
8
LABEL
10
200.5
20
77.8
30
0
40
4
1
Back
0
TEXT
8
LABEL
10
37
20
77.8
30
0
40
4
1
Left
0
TEXT
8
LABEL
10
146
20
77.8
30
0
40
4
1
Right
0
TEXT
8
LABEL
10
7.607
20
77.8
30
0
40
4
1
Glue tab
0
TEXT
8
LABEL
10
37
20
18.948
30
0
40
4
1
Top dust flap (L)
0
TEXT
8
LABEL
10
146
20
18.948
30
0
40
4
1
Top dust flap (R)
0
TEXT
8
LABEL
10
91.5
20
13.979
30
0
40
4
1
Top tuck flap
0
TEXT
8
LABEL
10
200.5
20
18.948
30
0
40
4
1
Top panel
0
TEXT
8
LABEL
10
37
20
136.652
30
0
40
4
1
Bottom dust flap (L)
0
TEXT
8
LABEL
10
146
20
136.652
30
0
40
4
1
Bottom dust flap (R)
0
TEXT
8
LABEL
10
200.5
20
141.621
30
0
40
4
1
Bottom tuck flap
0
TEXT
8
LABEL
10
91.5
20
136.652
30
0
40
4
1
Bottom panel
0
ENDSEC
0
EOF
