<?xml version="1.0" encoding="UTF-8"?>
<svg xmlns="http://www.w3.org/2000/svg" width="919.5mm" height="372mm" viewBox="0 0 919.5 372">
<title>Reverse Tuck End Folding Carton Box</title>
<rect x="0" y="0" width="919.5" height="372" fill="#fbfaf7"/>
<g transform="translate(36 36)">
<g id="cut-paths" stroke="#d12f2f" stroke-width="0.45" fill="none">
<polyline points="0,165 0,135"/>
<polyline points="420,165 120,165"/>
<polyline points="540,135 840,135"/>
<polyline points="840,135 847.5,137.4"/>
<polyline points="847.5,137.4 847.5,162.6"/>
<polyline points="847.5,162.6 840,165"/>
<polyline points="120,135 120,5.4"/>
<polyline points="120,5.4 120.184,4.002"/>
<polyline points="120.184,4.002 120.723,2.7"/>
<polyline points="120.723,2.7 121.582,1.582"/>
<polyline points="121.582,1.582 122.7,0.723"/>
<polyline points="122.7,0.723 124.002,0.184"/>
<polyline points="124.002,0.184 125.4,0"/>
<polyline points="125.4,0 414.6,0"/>
<polyline points="414.6,0 415.998,0.184"/>
<polyline points="415.998,0.184 417.3,0.723"/>
<polyline points="417.3,0.723 418.418,1.582"/>
<polyline points="418.418,1.582 419.277,2.7"/>
<polyline points="419.277,2.7 419.816,4.002"/>
<polyline points="419.816,4.002 420,5.4"/>
<polyline points="420,5.4 420,135"/>
<polyline points="0,135 3.6,112.5"/>
<polyline points="3.6,112.5 116.4,112.5"/>
<polyline points="116.4,112.5 120,135"/>
<polyline points="420,135 423.6,112.5"/>
<polyline points="423.6,112.5 536.4,112.5"/>
<polyline points="536.4,112.5 540,135"/>
<polyline points="540,165 540,294.6"/>
<polyline points="540,294.6 540.184,295.998"/>
<polyline points="540.184,295.998 540.723,297.3"/>
<polyline points="540.723,297.3 541.582,298.418"/>
<polyline points="541.582,298.418 542.7,299.277"/>
<polyline points="542.7,299.277 544.002,299.816"/>
<polyline points="544.002,299.816 545.4,300"/>
<polyline points="545.4,300 834.6,300"/>
<polyline points="834.6,300 835.998,299.816"/>
<polyline points="835.998,299.816 837.3,299.277"/>
<polyline points="837.3,299.277 838.418,298.418"/>
<polyline points="838.418,298.418 839.277,297.3"/>
<polyline points="839.277,297.3 839.816,295.998"/>
<polyline points="839.816,295.998 840,294.6"/>
<polyline points="840,294.6 840,165"/>
<polyline points="0,165 3.6,187.5"/>
<polyline points="3.6,187.5 116.4,187.5"/>
<polyline points="116.4,187.5 120,165"/>
<polyline points="420,165 423.6,187.5"/>
<polyline points="423.6,187.5 536.4,187.5"/>
<polyline points="536.4,187.5 540,165"/>
</g>
<g id="face-outlines" fill="rgba(255,255,255,0.6)" stroke="#2f3437" stroke-width="0.35">
<polygon points="0,135 120,135 120,165 0,165"/>
<polygon points="120,135 420,135 420,165 120,165"/>
<polygon points="420,135 540,135 540,165 420,165"/>
<polygon points="540,135 840,135 840,165 540,165"/>
<polygon points="840,135 847.5,137.4 847.5,162.6 840,165"/>
<polygon points="120,135 120,5.4 120.184,4.002 120.723,2.7 121.582,1.582 122.7,0.723 124.002,0.184 125.4,0 414.6,0 415.998,0.184 417.3,0.723 418.418,1.582 419.277,2.7 419.816,4.002 420,5.4 420,135"/>
<polygon points="0,135 3.6,112.5 116.4,112.5 120,135"/>
<polygon points="420,135 423.6,112.5 536.4,112.5 540,135"/>
<polygon points="540,165 540,294.6 540.184,295.998 540.723,297.3 541.582,298.418 542.7,299.277 544.002,299.816 545.4,300 834.6,300 835.998,299.816 837.3,299.277 838.418,298.418 839.277,297.3 839.816,295.998 840,294.6 840,165"/>
<polygon points="0,165 3.6,187.5 116.4,187.5 120,165"/>
<polygon points="420,165 423.6,187.5 536.4,187.5 540,165"/>
</g>
<g id="structural-creases" stroke="#2364aa" stroke-width="0.55" stroke-dasharray="2 1">
<line x1="120" y1="135" x2="120" y2="165"/>
<line x1="420" y1="135" x2="420" y2="165"/>
<line x1="540" y1="135" x2="540" y2="165"/>
<line x1="840" y1="135" x2="840" y2="165"/>
<line x1="120" y1="135" x2="420" y2="135"/>
<line x1="0" y1="135" x2="120" y2="135"/>
<line x1="420" y1="135" x2="540" y2="135"/>
<line x1="540" y1="165" x2="840" y2="165"/>
<line x1="0" y1="165" x2="120" y2="165"/>
<line x1="420" y1="165" x2="540" y2="165"/>
</g>
<g id="internal-score-lines" stroke="#d88400" stroke-width="0.45" stroke-dasharray="1.4 1">
<line x1="120" y1="15" x2="420" y2="15"/>
<line x1="540" y1="285" x2="840" y2="285"/>
</g>
<g id="anchors" stroke="#198754" fill="#198754" stroke-width="0.35">
<line x1="0" y1="135" x2="120" y2="135"/>
<circle cx="0" cy="135" r="1.25"/>
<circle cx="120" cy="135" r="1.25"/>
<line x1="120" y1="135" x2="120" y2="165"/>
<circle cx="120" cy="135" r="1.25"/>
<circle cx="120" cy="165" r="1.25"/>
<line x1="0" y1="165" x2="120" y2="165"/>
<circle cx="0" cy="165" r="1.25"/>
<circle cx="120" cy="165" r="1.25"/>
<line x1="0" y1="135" x2="0" y2="165"/>
<circle cx="0" cy="135" r="1.25"/>
<circle cx="0" cy="165" r="1.25"/>
<line x1="120" y1="135" x2="420" y2="135"/>
<circle cx="120" cy="135" r="1.25"/>
<circle cx="420" cy="135" r="1.25"/>
<line x1="420" y1="135" x2="420" y2="165"/>
<circle cx="420" cy="135" r="1.25"/>
<circle cx="420" cy="165" r="1.25"/>
<line x1="120" y1="165" x2="420" y2="165"/>
<circle cx="120" cy="165" r="1.25"/>
<circle cx="420" cy="165" r="1.25"/>
<line x1="120" y1="135" x2="120" y2="165"/>
<circle cx="120" cy="135" r="1.25"/>
<circle cx="120" cy="165" r="1.25"/>
<line x1="420" y1="135" x2="540" y2="135"/>
<circle cx="420" cy="135" r="1.25"/>
<circle cx="540" cy="135" r="1.25"/>
<line x1="540" y1="135" x2="540" y2="165"/>
<circle cx="540" cy="135" r="1.25"/>
<circle cx="540" cy="165" r="1.25"/>
<line x1="420" y1="165" x2="540" y2="165"/>
<circle cx="420" cy="165" r="1.25"/>
<circle cx="540" cy="165" r="1.25"/>
<line x1="420" y1="135" x2="420" y2="165"/>
<circle cx="420" cy="135" r="1.25"/>
<circle cx="420" cy="165" r="1.25"/>
<line x1="540" y1="135" x2="840" y2="135"/>
<circle cx="540" cy="135" r="1.25"/>
<circle cx="840" cy="135" r="1.25"/>
<line x1="840" y1="135" x2="840" y2="165"/>
<circle cx="840" cy="135" r="1.25"/>
<circle cx="840" cy="165" r="1.25"/>
<line x1="540" y1="165" x2="840" y2="165"/>
<circle cx="540" cy="165" r="1.25"/>
<circle cx="840" cy="165" r="1.25"/>
<line x1="540" y1="135" x2="540" y2="165"/>
<circle cx="540" cy="135" r="1.25"/>
<circle cx="540" cy="165" r="1.25"/>
<line x1="840" y1="135" x2="847.5" y2="135"/>
<circle cx="840" cy="135" r="1.25"/>
<circle cx="847.5" cy="135" r="1.25"/>
<line x1="847.5" y1="135" x2="847.5" y2="165"/>
<circle cx="847.5" cy="135" r="1.25"/>
<circle cx="847.5" cy="165" r="1.25"/>
<line x1="840" y1="165" x2="847.5" y2="165"/>
<circle cx="840" cy="165" r="1.25"/>
<circle cx="847.5" cy="165" r="1.25"/>
<line x1="840" y1="135" x2="840" y2="165"/>
<circle cx="840" cy="135" r="1.25"/>
<circle cx="840" cy="165" r="1.25"/>
<line x1="120" y1="0" x2="420" y2="0"/>
<circle cx="120" cy="0" r="1.25"/>
<circle cx="420" cy="0" r="1.25"/>
<line x1="420" y1="0" x2="420" y2="135"/>
<circle cx="420" cy="0" r="1.25"/>
<circle cx="420" cy="135" r="1.25"/>
<line x1="120" y1="135" x2="420" y2="135"/>
<circle cx="120" cy="135" r="1.25"/>
<circle cx="420" cy="135" r="1.25"/>
<line x1="120" y1="0" x2="120" y2="135"/>
<circle cx="120" cy="0" r="1.25"/>
<circle cx="120" cy="135" r="1.25"/>
<line x1="0" y1="112.5" x2="120" y2="112.5"/>
<circle cx="0" cy="112.5" r="1.25"/>
<circle cx="120" cy="112.5" r="1.25"/>
<line x1="120" y1="112.5" x2="120" y2="135"/>
<circle cx="120" cy="112.5" r="1.25"/>
<circle cx="120" cy="135" r="1.25"/>
<line x1="0" y1="135" x2="120" y2="135"/>
<circle cx="0" cy="135" r="1.25"/>
<circle cx="120" cy="135" r="1.25"/>
<line x1="0" y1="112.5" x2="0" y2="135"/>
<circle cx="0" cy="112.5" r="1.25"/>
<circle cx="0" cy="135" r="1.25"/>
<line x1="420" y1="112.5" x2="540" y2="112.5"/>
<circle cx="420" cy="112.5" r="1.25"/>
<circle cx="540" cy="112.5" r="1.25"/>
<line x1="540" y1="112.5" x2="540" y2="135"/>
<circle cx="540" cy="112.5" r="1.25"/>
<circle cx="540" cy="135" r="1.25"/>
<line x1="420" y1="135" x2="540" y2="135"/>
<circle cx="420" cy="135" r="1.25"/>
<circle cx="540" cy="135" r="1.25"/>
<line x1="420" y1="112.5" x2="420" y2="135"/>
<circle cx="420" cy="112.5" r="1.25"/>
<circle cx="420" cy="135" r="1.25"/>
<line x1="540" y1="165" x2="840" y2="165"/>
<circle cx="540" cy="165" r="1.25"/>
<circle cx="840" cy="165" r="1.25"/>
<line x1="840" y1="165" x2="840" y2="300"/>
<circle cx="840" cy="165" r="1.25"/>
<circle cx="840" cy="300" r="1.25"/>
<line x1="540" y1="300" x2="840" y2="300"/>
<circle cx="540" cy="300" r="1.25"/>
<circle cx="840" cy="300" r="1.25"/>
<line x1="540" y1="165" x2="540" y2="300"/>
<circle cx="540" cy="165" r="1.25"/>
<circle cx="540" cy="300" r="1.25"/>
<line x1="0" y1="165" x2="120" y2="165"/>
<circle cx="0" cy="165" r="1.25"/>
<circle cx="120" cy="165" r="1.25"/>
<line x1="120" y1="165" x2="120" y2="187.5"/>
<circle cx="120" cy="165" r="1.25"/>
<circle cx="120" cy="187.5" r="1.25"/>
<line x1="0" y1="187.5" x2="120" y2="187.5"/>
<circle cx="0" cy="187.5" r="1.25"/>
<circle cx="120" cy="187.5" r="1.25"/>
<line x1="0" y1="165" x2="0" y2="187.5"/>
<circle cx="0" cy="165" r="1.25"/>
<circle cx="0" cy="187.5" r="1.25"/>
<line x1="420" y1="165" x2="540" y2="165"/>
<circle cx="420" cy="165" r="1.25"/>
<circle cx="540" cy="165" r="1.25"/>
<line x1="540" y1="165" x2="540" y2="187.5"/>
<circle cx="540" cy="165" r="1.25"/>
<circle cx="540" cy="187.5" r="1.25"/>
<line x1="420" y1="187.5" x2="540" y2="187.5"/>
<circle cx="420" cy="187.5" r="1.25"/>
<circle cx="540" cy="187.5" r="1.25"/>
<line x1="420" y1="165" x2="420" y2="187.5"/>
<circle cx="420" cy="165" r="1.25"/>
<circle cx="420" cy="187.5" r="1.25"/>
</g>
<g id="face-labels" fill="#111827" style="font-family:Arial, sans-serif;font-size:4px;paint-order:stroke;stroke:#fff;stroke-width:1.2px;stroke-linejoin:round;">
<text x="60" y="150" text-anchor="middle">left</text>
<text x="270" y="150" text-anchor="middle">front</text>
<text x="480" y="150" text-anchor="middle">right</text>
<text x="690" y="150" text-anchor="middle">back</text>
<text x="843.641" y="150" text-anchor="middle">glue-tab</text>
<text x="270" y="67.521" text-anchor="middle">top-tuck</text>
<text x="60" y="123.866" text-anchor="middle">top-dust-left</text>
<text x="480" y="123.866" text-anchor="middle">top-dust-right</text>
<text x="690" y="232.479" text-anchor="middle">bottom-tuck</text>
<text x="60" y="176.134" text-anchor="middle">bottom-dust-left</text>
<text x="480" y="176.134" text-anchor="middle">bottom-dust-right</text>
</g>
<g id="crease-labels" fill="#174a7c" style="font-family:Arial, sans-serif;font-size:4px;paint-order:stroke;stroke:#fff;stroke-width:1.2px;stroke-linejoin:round;">
<text x="120" y="148.4" text-anchor="middle">cr-left-front</text>
<text x="420" y="148.4" text-anchor="middle">cr-front-right</text>
<text x="540" y="148.4" text-anchor="middle">cr-right-back</text>
<text x="840" y="148.4" text-anchor="middle">cr-back-glue</text>
<text x="270" y="133.4" text-anchor="middle">cr-front-toptuck</text>
<text x="60" y="133.4" text-anchor="middle">cr-left-topdust</text>
<text x="480" y="133.4" text-anchor="middle">cr-right-topdust</text>
<text x="690" y="163.4" text-anchor="middle">cr-back-bottomtuck</text>
<text x="60" y="163.4" text-anchor="middle">cr-left-bottomdust</text>
<text x="480" y="163.4" text-anchor="middle">cr-right-bottomdust</text>
</g>
<g id="anchor-labels" fill="#0f6b3f" style="font-family:Arial, sans-serif;font-size:4px;paint-order:stroke;stroke:#fff;stroke-width:1.2px;stroke-linejoin:round;">
<text x="60" y="132" text-anchor="middle">left.top</text>
<text x="123" y="150" text-anchor="middle">left.right</text>
<text x="60" y="168" text-anchor="middle">left.bottom</text>
<text x="-3" y="150" text-anchor="middle">left.left</text>
<text x="270" y="132" text-anchor="middle">front.top</text>
<text x="423" y="150" text-anchor="middle">front.right</text>
<text x="270" y="168" text-anchor="middle">front.bottom</text>
<text x="117" y="150" text-anchor="middle">front.left</text>
<text x="480" y="132" text-anchor="middle">right.top</text>
<text x="543" y="150" text-anchor="middle">right.right</text>
<text x="480" y="168" text-anchor="middle">right.bottom</text>
<text x="417" y="150" text-anchor="middle">right.left</text>
<text x="690" y="132" text-anchor="middle">back.top</text>
<text x="843" y="150" text-anchor="middle">back.right</text>
<text x="690" y="168" text-anchor="middle">back.bottom</text>
<text x="537" y="150" text-anchor="middle">back.left</text>
<text x="843.75" y="132" text-anchor="middle">glue-tab.top</text>
<text x="850.5" y="150" text-anchor="middle">glue-tab.right</text>
<text x="843.75" y="168" text-anchor="middle">glue-tab.bottom</text>
<text x="837" y="150" text-anchor="middle">glue-tab.left</text>
<text x="270" y="-3" text-anchor="middle">top-tuck.top</text>
<text x="423" y="67.5" text-anchor="middle">top-tuck.right</text>
<text x="270" y="138" text-anchor="middle">top-tuck.bottom</text>
<text x="117" y="67.5" text-anchor="middle">top-tuck.left</text>
<text x="60" y="109.5" text-anchor="middle">top-dust-left.top</text>
<text x="123" y="123.75" text-anchor="middle">top-dust-left.right</text>
<text x="60" y="138" text-anchor="middle">top-dust-left.bottom</text>
<text x="-3" y="123.75" text-anchor="middle">top-dust-left.left</text>
<text x="480" y="109.5" text-anchor="middle">top-dust-right.top</text>
<text x="543" y="123.75" text-anchor="middle">top-dust-right.right</text>
<text x="480" y="138" text-anchor="middle">top-dust-right.bottom</text>
<text x="417" y="123.75" text-anchor="middle">top-dust-right.left</text>
<text x="690" y="162" text-anchor="middle">bottom-tuck.top</text>
<text x="843" y="232.5" text-anchor="middle">bottom-tuck.right</text>
<text x="690" y="303" text-anchor="middle">bottom-tuck.bottom</text>
<text x="537" y="232.5" text-anchor="middle">bottom-tuck.left</text>
<text x="60" y="162" text-anchor="middle">bottom-dust-left.top</text>
<text x="123" y="176.25" text-anchor="middle">bottom-dust-left.right</text>
<text x="60" y="190.5" text-anchor="middle">bottom-dust-left.bottom</text>
<text x="-3" y="176.25" text-anchor="middle">bottom-dust-left.left</text>
<text x="480" y="162" text-anchor="middle">bottom-dust-right.top</text>
<text x="543" y="176.25" text-anchor="middle">bottom-dust-right.right</text>
<text x="480" y="190.5" text-anchor="middle">bottom-dust-right.bottom</text>
<text x="417" y="176.25" text-anchor="middle">bottom-dust-right.left</text>
</g>
<g id="part-labels" fill="#6f42c1" style="font-family:Arial, sans-serif;font-size:4px;paint-order:stroke;stroke:#fff;stroke-width:1.2px;stroke-linejoin:round;">
<text x="375" y="155" text-anchor="middle">body</text>
<text x="843.641" y="155" text-anchor="middle">glue-tab</text>
<text x="270" y="72.521" text-anchor="middle">top-tuck</text>
<text x="60" y="128.866" text-anchor="middle">top-dust-left</text>
<text x="480" y="128.866" text-anchor="middle">top-dust-right</text>
<text x="690" y="237.479" text-anchor="middle">bottom-tuck</text>
<text x="60" y="181.134" text-anchor="middle">bottom-dust-left</text>
<text x="480" y="181.134" text-anchor="middle">bottom-dust-right</text>
</g>
</g>
</svg>