<?xml version="1.0" encoding="UTF-8"?>
<svg xmlns="http://www.w3.org/2000/svg" width="652mm" height="533.2mm" viewBox="0 0 652 533.2">
<title>Reverse Tuck End Folding Carton Box</title>
<rect x="0" y="0" width="652" height="533.2" fill="#fbfaf7"/>
<g transform="translate(36 36)">
<g id="cut-paths" stroke="#d12f2f" stroke-width="0.45" fill="none">
<polyline points="0,355.6 0,105.6"/>
<polyline points="280,355.6 80,355.6"/>
<polyline points="360,105.6 560,105.6"/>
<polyline points="560,105.6 580,112.4"/>
<polyline points="580,112.4 580,348.8"/>
<polyline points="580,348.8 560,355.6"/>
<polyline points="80,105.6 80,8"/>
<polyline points="80,8 80.273,5.929"/>
<polyline points="80.273,5.929 81.072,4"/>
<polyline points="81.072,4 82.343,2.343"/>
<polyline points="82.343,2.343 84,1.072"/>
<polyline points="84,1.072 85.929,0.273"/>
<polyline points="85.929,0.273 88,0"/>
<polyline points="88,0 272,0"/>
<polyline points="272,0 274.071,0.273"/>
<polyline points="274.071,0.273 276,1.072"/>
<polyline points="276,1.072 277.657,2.343"/>
<polyline points="277.657,2.343 278.928,4"/>
<polyline points="278.928,4 279.727,5.929"/>
<polyline points="279.727,5.929 280,8"/>
<polyline points="280,8 280,105.6"/>
<polyline points="0,105.6 6,59.2"/>
<polyline points="6,59.2 74,59.2"/>
<polyline points="74,59.2 80,105.6"/>
<polyline points="280,105.6 286,59.2"/>
<polyline points="286,59.2 354,59.2"/>
<polyline points="354,59.2 360,105.6"/>
<polyline points="360,355.6 360,453.2"/>
<polyline points="360,453.2 360.273,455.271"/>
<polyline points="360.273,455.271 361.072,457.2"/>
<polyline points="361.072,457.2 362.343,458.857"/>
<polyline points="362.343,458.857 364,460.128"/>
<polyline points="364,460.128 365.929,460.927"/>
<polyline points="365.929,460.927 368,461.2"/>
<polyline points="368,461.2 552,461.2"/>
<polyline points="552,461.2 554.071,460.927"/>
<polyline points="554.071,460.927 556,460.128"/>
<polyline points="556,460.128 557.657,458.857"/>
<polyline points="557.657,458.857 558.928,457.2"/>
<polyline points="558.928,457.2 559.727,455.271"/>
<polyline points="559.727,455.271 560,453.2"/>
<polyline points="560,453.2 560,355.6"/>
<polyline points="0,355.6 6,402"/>
<polyline points="6,402 74,402"/>
<polyline points="74,402 80,355.6"/>
<polyline points="280,355.6 286,402"/>
<polyline points="286,402 354,402"/>
<polyline points="354,402 360,355.6"/>
</g>
<g id="face-outlines" fill="rgba(255,255,255,0.6)" stroke="#2f3437" stroke-width="0.35">
<polygon points="0,105.6 80,105.6 80,355.6 0,355.6"/>
<polygon points="80,105.6 280,105.6 280,355.6 80,355.6"/>
<polygon points="280,105.6 360,105.6 360,355.6 280,355.6"/>
<polygon points="360,105.6 560,105.6 560,355.6 360,355.6"/>
<polygon points="560,105.6 580,112.4 580,348.8 560,355.6"/>
<polygon points="80,105.6 80,8 80.273,5.929 81.072,4 82.343,2.343 84,1.072 85.929,0.273 88,0 272,0 274.071,0.273 276,1.072 277.657,2.343 278.928,4 279.727,5.929 280,8 280,105.6"/>
<polygon points="0,105.6 6,59.2 74,59.2 80,105.6"/>
<polygon points="280,105.6 286,59.2 354,59.2 360,105.6"/>
<polygon points="360,355.6 360,453.2 360.273,455.271 361.072,457.2 362.343,458.857 364,460.128 365.929,460.927 368,461.2 552,461.2 554.071,460.927 556,460.128 557.657,458.857 558.928,457.2 559.727,455.271 560,453.2 560,355.6"/>
<polygon points="0,355.6 6,402 74,402 80,355.6"/>
<polygon points="280,355.6 286,402 354,402 360,355.6"/>
</g>
<g id="structural-creases" stroke="#2364aa" stroke-width="0.55" stroke-dasharray="2 1">
<line x1="80" y1="105.6" x2="80" y2="355.6"/>
<line x1="280" y1="105.6" x2="280" y2="355.6"/>
<line x1="360" y1="105.6" x2="360" y2="355.6"/>
<line x1="560" y1="105.6" x2="560" y2="355.6"/>
<line x1="80" y1="105.6" x2="280" y2="105.6"/>
<line x1="0" y1="105.6" x2="80" y2="105.6"/>
<line x1="280" y1="105.6" x2="360" y2="105.6"/>
<line x1="360" y1="355.6" x2="560" y2="355.6"/>
<line x1="0" y1="355.6" x2="80" y2="355.6"/>
<line x1="280" y1="355.6" x2="360" y2="355.6"/>
</g>
<g id="internal-score-lines" stroke="#d88400" stroke-width="0.45" stroke-dasharray="1.4 1">
<line x1="80" y1="25.6" x2="280" y2="25.6"/>
<line x1="360" y1="435.6" x2="560" y2="435.6"/>
</g>
<g id="anchors" stroke="#198754" fill="#198754" stroke-width="0.35">
<line x1="0" y1="105.6" x2="80" y2="105.6"/>
<circle cx="0" cy="105.6" r="1.25"/>
<circle cx="80" cy="105.6" r="1.25"/>
<line x1="80" y1="105.6" x2="80" y2="355.6"/>
<circle cx="80" cy="105.6" r="1.25"/>
<circle cx="80" cy="355.6" r="1.25"/>
<line x1="0" y1="355.6" x2="80" y2="355.6"/>
<circle cx="0" cy="355.6" r="1.25"/>
<circle cx="80" cy="355.6" r="1.25"/>
<line x1="0" y1="105.6" x2="0" y2="355.6"/>
<circle cx="0" cy="105.6" r="1.25"/>
<circle cx="0" cy="355.6" r="1.25"/>
<line x1="80" y1="105.6" x2="280" y2="105.6"/>
<circle cx="80" cy="105.6" r="1.25"/>
<circle cx="280" cy="105.6" r="1.25"/>
<line x1="280" y1="105.6" x2="280" y2="355.6"/>
<circle cx="280" cy="105.6" r="1.25"/>
<circle cx="280" cy="355.6" r="1.25"/>
<line x1="80" y1="355.6" x2="280" y2="355.6"/>
<circle cx="80" cy="355.6" r="1.25"/>
<circle cx="280" cy="355.6" r="1.25"/>
<line x1="80" y1="105.6" x2="80" y2="355.6"/>
<circle cx="80" cy="105.6" r="1.25"/>
<circle cx="80" cy="355.6" r="1.25"/>
<line x1="280" y1="105.6" x2="360" y2="105.6"/>
<circle cx="280" cy="105.6" r="1.25"/>
<circle cx="360" cy="105.6" r="1.25"/>
<line x1="360" y1="105.6" x2="360" y2="355.6"/>
<circle cx="360" cy="105.6" r="1.25"/>
<circle cx="360" cy="355.6" r="1.25"/>
<line x1="280" y1="355.6" x2="360" y2="355.6"/>
<circle cx="280" cy="355.6" r="1.25"/>
<circle cx="360" cy="355.6" r="1.25"/>
<line x1="280" y1="105.6" x2="280" y2="355.6"/>
<circle cx="280" cy="105.6" r="1.25"/>
<circle cx="280" cy="355.6" r="1.25"/>
<line x1="360" y1="105.6" x2="560" y2="105.6"/>
<circle cx="360" cy="105.6" r="1.25"/>
<circle cx="560" cy="105.6" r="1.25"/>
<line x1="560" y1="105.6" x2="560" y2="355.6"/>
<circle cx="560" cy="105.6" r="1.25"/>
<circle cx="560" cy="355.6" r="1.25"/>
<line x1="360" y1="355.6" x2="560" y2="355.6"/>
<circle cx="360" cy="355.6" r="1.25"/>
<circle cx="560" cy="355.6" r="1.25"/>
<line x1="360" y1="105.6" x2="360" y2="355.6"/>
<circle cx="360" cy="105.6" r="1.25"/>
<circle cx="360" cy="355.6" r="1.25"/>
<line x1="560" y1="105.6" x2="580" y2="105.6"/>
<circle cx="560" cy="105.6" r="1.25"/>
<circle cx="580" cy="105.6" r="1.25"/>
<line x1="580" y1="105.6" x2="580" y2="355.6"/>
<circle cx="580" cy="105.6" r="1.25"/>
<circle cx="580" cy="355.6" r="1.25"/>
<line x1="560" y1="355.6" x2="580" y2="355.6"/>
<circle cx="560" cy="355.6" r="1.25"/>
<circle cx="580" cy="355.6" r="1.25"/>
<line x1="560" y1="105.6" x2="560" y2="355.6"/>
<circle cx="560" cy="105.6" r="1.25"/>
<circle cx="560" cy="355.6" r="1.25"/>
<line x1="80" y1="0" x2="280" y2="0"/>
<circle cx="80" cy="0" r="1.25"/>
<circle cx="280" cy="0" r="1.25"/>
<line x1="280" y1="0" x2="280" y2="105.6"/>
<circle cx="280" cy="0" r="1.25"/>
<circle cx="280" cy="105.6" r="1.25"/>
<line x1="80" y1="105.6" x2="280" y2="105.6"/>
<circle cx="80" cy="105.6" r="1.25"/>
<circle cx="280" cy="105.6" r="1.25"/>
<line x1="80" y1="0" x2="80" y2="105.6"/>
<circle cx="80" cy="0" r="1.25"/>
<circle cx="80" cy="105.6" r="1.25"/>
<line x1="0" y1="59.2" x2="80" y2="59.2"/>
<circle cx="0" cy="59.2" r="1.25"/>
<circle cx="80" cy="59.2" r="1.25"/>
<line x1="80" y1="59.2" x2="80" y2="105.6"/>
<circle cx="80" cy="59.2" r="1.25"/>
<circle cx="80" cy="105.6" r="1.25"/>
<line x1="0" y1="105.6" x2="80" y2="105.6"/>
<circle cx="0" cy="105.6" r="1.25"/>
<circle cx="80" cy="105.6" r="1.25"/>
<line x1="0" y1="59.2" x2="0" y2="105.6"/>
<circle cx="0" cy="59.2" r="1.25"/>
<circle cx="0" cy="105.6" r="1.25"/>
<line x1="280" y1="59.2" x2="360" y2="59.2"/>
<circle cx="280" cy="59.2" r="1.25"/>
<circle cx="360" cy="59.2" r="1.25"/>
<line x1="360" y1="59.2" x2="360" y2="105.6"/>
<circle cx="360" cy="59.2" r="1.25"/>
<circle cx="360" cy="105.6" r="1.25"/>
<line x1="280" y1="105.6" x2="360" y2="105.6"/>
<circle cx="280" cy="105.6" r="1.25"/>
<circle cx="360" cy="105.6" r="1.25"/>
<line x1="280" y1="59.2" x2="280" y2="105.6"/>
<circle cx="280" cy="59.2" r="1.25"/>
<circle cx="280" cy="105.6" r="1.25"/>
<line x1="360" y1="355.6" x2="560" y2="355.6"/>
<circle cx="360" cy="355.6" r="1.25"/>
<circle cx="560" cy="355.6" r="1.25"/>
<line x1="560" y1="355.6" x2="560" y2="461.2"/>
<circle cx="560" cy="355.6" r="1.25"/>
<circle cx="560" cy="461.2" r="1.25"/>
<line x1="360" y1="461.2" x2="560" y2="461.2"/>
<circle cx="360" cy="461.2" r="1.25"/>
<circle cx="560" cy="461.2" r="1.25"/>
<line x1="360" y1="355.6" x2="360" y2="461.2"/>
<circle cx="360" cy="355.6" r="1.25"/>
<circle cx="360" cy="461.2" r="1.25"/>
<line x1="0" y1="355.6" x2="80" y2="355.6"/>
<circle cx="0" cy="355.6" r="1.25"/>
<circle cx="80" cy="355.6" r="1.25"/>
<line x1="80" y1="355.6" x2="80" y2="402"/>
<circle cx="80" cy="355.6" r="1.25"/>
<circle cx="80" cy="402" r="1.25"/>
<line x1="0" y1="402" x2="80" y2="402"/>
<circle cx="0" cy="402" r="1.25"/>
<circle cx="80" cy="402" r="1.25"/>
<line x1="0" y1="355.6" x2="0" y2="402"/>
<circle cx="0" cy="355.6" r="1.25"/>
<circle cx="0" cy="402" r="1.25"/>
<line x1="280" y1="355.6" x2="360" y2="355.6"/>
<circle cx="280" cy="355.6" r="1.25"/>
<circle cx="360" cy="355.6" r="1.25"/>
<line x1="360" y1="355.6" x2="360" y2="402"/>
<circle cx="360" cy="355.6" r="1.25"/>
<circle cx="360" cy="402" r="1.25"/>
<line x1="280" y1="402" x2="360" y2="402"/>
<circle cx="280" cy="402" r="1.25"/>
<circle cx="360" cy="402" r="1.25"/>
<line x1="280" y1="355.6" x2="280" y2="402"/>
<circle cx="280" cy="355.6" r="1.25"/>
<circle cx="280" cy="402" r="1.25"/>
</g>
<g id="face-labels" fill="#111827" style="font-family:Arial, sans-serif;font-size:4px;paint-order:stroke;stroke:#fff;stroke-width:1.2px;stroke-linejoin:round;">
<text x="40" y="230.6" text-anchor="middle">left</text>
<text x="180" y="230.6" text-anchor="middle">front</text>
<text x="320" y="230.6" text-anchor="middle">right</text>
<text x="460" y="230.6" text-anchor="middle">back</text>
<text x="569.907" y="230.6" text-anchor="middle">glue-tab</text>
<text x="180" y="52.869" text-anchor="middle">top-tuck</text>
<text x="40" y="83.027" text-anchor="middle">top-dust-left</text>
<text x="320" y="83.027" text-anchor="middle">top-dust-right</text>
<text x="460" y="408.331" text-anchor="middle">bottom-tuck</text>
<text x="40" y="378.173" text-anchor="middle">bottom-dust-left</text>
<text x="320" y="378.173" text-anchor="middle">bottom-dust-right</text>
</g>
<g id="crease-labels" fill="#174a7c" style="font-family:Arial, sans-serif;font-size:4px;paint-order:stroke;stroke:#fff;stroke-width:1.2px;stroke-linejoin:round;">
<text x="80" y="229" text-anchor="middle">cr-left-front</text>
<text x="280" y="229" text-anchor="middle">cr-front-right</text>
<text x="360" y="229" text-anchor="middle">cr-right-back</text>
<text x="560" y="229" text-anchor="middle">cr-back-glue</text>
<text x="180" y="104" text-anchor="middle">cr-front-toptuck</text>
<text x="40" y="104" text-anchor="middle">cr-left-topdust</text>
<text x="320" y="104" text-anchor="middle">cr-right-topdust</text>
<text x="460" y="354" text-anchor="middle">cr-back-bottomtuck</text>
<text x="40" y="354" text-anchor="middle">cr-left-bottomdust</text>
<text x="320" y="354" text-anchor="middle">cr-right-bottomdust</text>
</g>
<g id="anchor-labels" fill="#0f6b3f" style="font-family:Arial, sans-serif;font-size:4px;paint-order:stroke;stroke:#fff;stroke-width:1.2px;stroke-linejoin:round;">
<text x="40" y="102.6" text-anchor="middle">left.top</text>
<text x="83" y="230.6" text-anchor="middle">left.right</text>
<text x="40" y="358.6" text-anchor="middle">left.bottom</text>
<text x="-3" y="230.6" text-anchor="middle">left.left</text>
<text x="180" y="102.6" text-anchor="middle">front.top</text>
<text x="283" y="230.6" text-anchor="middle">front.right</text>
<text x="180" y="358.6" text-anchor="middle">front.bottom</text>
<text x="77" y="230.6" text-anchor="middle">front.left</text>
<text x="320" y="102.6" text-anchor="middle">right.top</text>
<text x="363" y="230.6" text-anchor="middle">right.right</text>
<text x="320" y="358.6" text-anchor="middle">right.bottom</text>
<text x="277" y="230.6" text-anchor="middle">right.left</text>
<text x="460" y="102.6" text-anchor="middle">back.top</text>
<text x="563" y="230.6" text-anchor="middle">back.right</text>
<text x="460" y="358.6" text-anchor="middle">back.bottom</text>
<text x="357" y="230.6" text-anchor="middle">back.left</text>
<text x="570" y="102.6" text-anchor="middle">glue-tab.top</text>
<text x="583" y="230.6" text-anchor="middle">glue-tab.right</text>
<text x="570" y="358.6" text-anchor="middle">glue-tab.bottom</text>
<text x="557" y="230.6" text-anchor="middle">glue-tab.left</text>
<text x="180" y="-3" text-anchor="middle">top-tuck.top</text>
<text x="283" y="52.8" text-anchor="middle">top-tuck.right</text>
<text x="180" y="108.6" text-anchor="middle">top-tuck.bottom</text>
<text x="77" y="52.8" text-anchor="middle">top-tuck.left</text>
<text x="40" y="56.2" text-anchor="middle">top-dust-left.top</text>
<text x="83" y="82.4" text-anchor="middle">top-dust-left.right</text>
<text x="40" y="108.6" text-anchor="middle">top-dust-left.bottom</text>
<text x="-3" y="82.4" text-anchor="middle">top-dust-left.left</text>
<text x="320" y="56.2" text-anchor="middle">top-dust-right.top</text>
<text x="363" y="82.4" text-anchor="middle">top-dust-right.right</text>
<text x="320" y="108.6" text-anchor="middle">top-dust-right.bottom</text>
<text x="277" y="82.4" text-anchor="middle">top-dust-right.left</text>
<text x="460" y="352.6" text-anchor="middle">bottom-tuck.top</text>
<text x="563" y="408.4" text-anchor="middle">bottom-tuck.right</text>
<text x="460" y="464.2" text-anchor="middle">bottom-tuck.bottom</text>
<text x="357" y="408.4" text-anchor="middle">bottom-tuck.left</text>
<text x="40" y="352.6" text-anchor="middle">bottom-dust-left.top</text>
<text x="83" y="378.8" text-anchor="middle">bottom-dust-left.right</text>
<text x="40" y="405" text-anchor="middle">bottom-dust-left.bottom</text>
<text x="-3" y="378.8" text-anchor="middle">bottom-dust-left.left</text>
<text x="320" y="352.6" text-anchor="middle">bottom-dust-right.top</text>
<text x="363" y="378.8" text-anchor="middle">bottom-dust-right.right</text>
<text x="320" y="405" text-anchor="middle">bottom-dust-right.bottom</text>
<text x="277" y="378.8" text-anchor="middle">bottom-dust-right.left</text>
</g>
<g id="part-labels" fill="#6f42c1" style="font-family:Arial, sans-serif;font-size:4px;paint-order:stroke;stroke:#fff;stroke-width:1.2px;stroke-linejoin:round;">
<text x="250" y="235.6" text-anchor="middle">body</text>
<text x="569.907" y="235.6" text-anchor="middle">glue-tab</text>
<text x="180" y="57.869" text-anchor="middle">top-tuck</text>
<text x="40" y="88.027" text-anchor="middle">top-dust-left</text>
<text x="320" y="88.027" text-anchor="middle">top-dust-right</text>
<text x="460" y="413.331" text-anchor="middle">bottom-tuck</text>
<text x="40" y="383.173" text-anchor="middle">bottom-dust-left</text>
<text x="320" y="383.173" text-anchor="middle">bottom-dust-right</text>
</g>
</g>
</svg>