<?xml version="1.0" encoding="utf-8"?>
<!-- Generator: Adobe Illustrator 28.2.0, SVG Export Plug-In . SVG Version: 6.00 Build 0)  -->
<svg version="1.1" id="svg_dielines" xmlns="http://www.w3.org/2000/svg" xmlns:xlink="http://www.w3.org/1999/xlink" x="0px"
	 y="0px" viewBox="0 0 1027.5 628.4" style="enable-background:new 0 0 1027.5 628.4;" xml:space="preserve">
<style type="text/css">
	.st0{fill:none;stroke:#FF0000;stroke-width:0.25;stroke-miterlimit:2.1179;}
	.st1{display:none;}
	.st2{display:inline;fill:#FFFFFF;}
	.st3{font-family:'ArialMT';}
	.st4{font-size:12.4186px;}
	.st5{display:inline;fill:none;stroke:#FFFFFF;stroke-width:0.1059;stroke-miterlimit:2.1179;}
	.st6{display:inline;fill:none;stroke:#FFFFFF;stroke-width:0.5253;stroke-miterlimit:2.1179;}
	.st7{fill:none;stroke:#0000FF;stroke-width:0.25;stroke-miterlimit:2.1179;}
</style>
<g id="draft" transform="matrix(1 0 0 -1 0 0)">
	<g id="foldingLine">
		<line id="ID_27" vector-effect="non-scaling-stroke" class="st0" x1="204.9" y1="-248.8" x2="332.4" y2="-248.8"/>
		<line id="ID_2b" vector-effect="non-scaling-stroke" class="st0" x1="334.2" y1="-248.8" x2="334.2" y2="-491.3"/>
		<line id="ID_2f" vector-effect="non-scaling-stroke" class="st0" x1="334.2" y1="-248.8" x2="512.8" y2="-248.8"/>
		<line id="ID_33" vector-effect="non-scaling-stroke" class="st0" x1="512.8" y1="-248.8" x2="512.8" y2="-491.3"/>
		<line id="ID_37" vector-effect="non-scaling-stroke" class="st0" x1="514.7" y1="-248.8" x2="642.9" y2="-248.8"/>
		<line id="ID_3b" vector-effect="non-scaling-stroke" class="st0" x1="642.9" y1="-248.8" x2="642.9" y2="-491.3"/>
		<line id="ID_3f" vector-effect="non-scaling-stroke" class="st0" x1="642.9" y1="-248" x2="820.8" y2="-248"/>
		<line id="ID_43" vector-effect="non-scaling-stroke" class="st0" x1="820.8" y1="-248" x2="820.8" y2="-491.3"/>
		<line id="ID_8f" vector-effect="non-scaling-stroke" class="st0" x1="350.4" y1="-163.9" x2="496.7" y2="-163.9"/>
		<line id="a3" vector-effect="non-scaling-stroke" class="st0" x1="335" y1="-79" x2="512.1" y2="-79"/>
		<line id="ff" vector-effect="non-scaling-stroke" class="st0" x1="655.9" y1="-119.4" x2="807.9" y2="-119.4"/>
		<line id="ID_151" vector-effect="non-scaling-stroke" class="st0" x1="334.2" y1="-491.3" x2="512.8" y2="-491.3"/>
		<line id="ID_155" vector-effect="non-scaling-stroke" class="st0" x1="342.3" y1="-500" x2="398.9" y2="-556"/>
		<line id="ID_171" vector-effect="non-scaling-stroke" class="st0" x1="642.9" y1="-491.3" x2="820.8" y2="-491.3"/>
		<line id="ID_175" vector-effect="non-scaling-stroke" class="st0" x1="651" y1="-500" x2="707.6" y2="-556"/>
		<line id="ID_181" vector-effect="non-scaling-stroke" class="st0" x1="204.9" y1="-491.3" x2="334.2" y2="-491.3"/>
		<line id="ID_191" vector-effect="non-scaling-stroke" class="st0" x1="512.8" y1="-491.3" x2="642.9" y2="-491.3"/>
	</g>
	<g id="Dimensions" class="st1">
		<text transform="matrix(1 0 0 -1 254.4559 -461.3845)" class="st2 st3 st4">80.0</text>
		<text transform="matrix(1 0 0 -1 254.4559 -461.3845)" class="st5 st3 st4">80.0</text>
		<text transform="matrix(1 0 0 -1 403.4032 -461.6638)" class="st2 st3 st4">110.0</text>
		<text transform="matrix(1 0 0 -1 403.4032 -461.6638)" class="st5 st3 st4">110.0</text>
		<text transform="matrix(6.123235e-17 -1 -1 -6.123235e-17 176.1727 -349.3298)" class="st2 st3 st4">150.0</text>
		<text transform="matrix(6.123235e-17 -1 -1 -6.123235e-17 176.1727 -349.3298)" class="st5 st3 st4">150.0</text>
		<text transform="matrix(6.123235e-17 -1 -1 -6.123235e-17 341.1063 -192.4352)" class="st2 st3 st4">52.5</text>
		<text transform="matrix(6.123235e-17 -1 -1 -6.123235e-17 341.1063 -192.4352)" class="st5 st3 st4">52.5</text>
		<text transform="matrix(6.123235e-17 -1 -1 -6.123235e-17 308.7704 -51.3981)" class="st2 st3 st4">16.8</text>
		<text transform="matrix(6.123235e-17 -1 -1 -6.123235e-17 308.7704 -51.3981)" class="st5 st3 st4">16.8</text>
		<text transform="matrix(6.123235e-17 -1 -1 -6.123235e-17 478.5536 -156.2302)" class="st2 st3 st4">10.0</text>
		<text transform="matrix(6.123235e-17 -1 -1 -6.123235e-17 478.5536 -156.2302)" class="st5 st3 st4">10.0</text>
		<text transform="matrix(6.123235e-17 -1 -1 -6.123235e-17 403.7391 -185.4059)" class="st2 st3 st4">15.5</text>
		<text transform="matrix(6.123235e-17 -1 -1 -6.123235e-17 403.7391 -185.4059)" class="st5 st3 st4">15.5</text>
		<text transform="matrix(1 0 0 -1 405.2352 -104.029)" class="st2 st3 st4">45.2</text>
		<text transform="matrix(1 0 0 -1 405.2352 -104.029)" class="st5 st3 st4">45.2</text>
		<text transform="matrix(1 0 0 -1 406.1082 -136.3688)" class="st2 st3 st4">13.5</text>
		<text transform="matrix(1 0 0 -1 406.1082 -136.3688)" class="st5 st3 st4">13.5</text>
		<text transform="matrix(6.123235e-17 -1 -1 -6.123235e-17 452.2508 -216.8552)" class="st2 st3 st4">22.8</text>
		<text transform="matrix(6.123235e-17 -1 -1 -6.123235e-17 452.2508 -216.8552)" class="st5 st3 st4">22.8</text>
		<text transform="matrix(6.123235e-17 -1 -1 -6.123235e-17 670.5457 -91.6227)" class="st2 st3 st4">18.0</text>
		<text transform="matrix(6.123235e-17 -1 -1 -6.123235e-17 670.5457 -91.6227)" class="st5 st3 st4">18.0</text>
		<text transform="matrix(6.123235e-17 -1 -1 -6.123235e-17 787.4012 -85.9743)" class="st2 st3 st4">9.0</text>
		<text transform="matrix(6.123235e-17 -1 -1 -6.123235e-17 787.4012 -85.9743)" class="st5 st3 st4">9.0</text>
		<text transform="matrix(6.123235e-17 -1 -1 -6.123235e-17 202.0457 -204.822)" class="st2 st3 st4">36.0</text>
		<text transform="matrix(6.123235e-17 -1 -1 -6.123235e-17 202.0457 -204.822)" class="st5 st3 st4">36.0</text>
		<line id="ID_1a1" vector-effect="non-scaling-stroke" class="st6" x1="204.9" y1="-467" x2="209.7" y2="-464.2"/>
		<line id="ID_1a3" vector-effect="non-scaling-stroke" class="st6" x1="204.9" y1="-467" x2="209.7" y2="-469.8"/>
		<line id="ID_1a5" vector-effect="non-scaling-stroke" class="st6" x1="334.2" y1="-467" x2="329.4" y2="-464.2"/>
		<line id="ID_1a7" vector-effect="non-scaling-stroke" class="st6" x1="334.2" y1="-467" x2="329.4" y2="-469.8"/>
		<line id="ID_1a9" vector-effect="non-scaling-stroke" class="st6" x1="208.1" y1="-467" x2="269.5" y2="-467"/>
		<line id="ID_1ab" vector-effect="non-scaling-stroke" class="st6" x1="331" y1="-467" x2="269.5" y2="-467"/>
		<line id="ID_1b2" vector-effect="non-scaling-stroke" class="st6" x1="334.6" y1="-467" x2="339.4" y2="-464.2"/>
		<line id="ID_1b4" vector-effect="non-scaling-stroke" class="st6" x1="334.6" y1="-467" x2="339.4" y2="-469.8"/>
		<line id="ID_1b6" vector-effect="non-scaling-stroke" class="st6" x1="512.5" y1="-467" x2="507.6" y2="-464.2"/>
		<line id="ID_1b8" vector-effect="non-scaling-stroke" class="st6" x1="512.5" y1="-467" x2="507.6" y2="-469.8"/>
		<line id="ID_1ba" vector-effect="non-scaling-stroke" class="st6" x1="337.8" y1="-467" x2="423.5" y2="-467"/>
		<line id="ID_1bc" vector-effect="non-scaling-stroke" class="st6" x1="509.2" y1="-467" x2="423.5" y2="-467"/>
		<line id="ID_1c3" vector-effect="non-scaling-stroke" class="st6" x1="193.5" y1="-248.8" x2="196.3" y2="-253.6"/>
		<line id="ID_1c5" vector-effect="non-scaling-stroke" class="st6" x1="193.5" y1="-248.8" x2="190.7" y2="-253.6"/>
		<line id="ID_1c7" vector-effect="non-scaling-stroke" class="st6" x1="193.5" y1="-491.3" x2="196.3" y2="-486.4"/>
		<line id="ID_1c9" vector-effect="non-scaling-stroke" class="st6" x1="193.5" y1="-491.3" x2="190.7" y2="-486.4"/>
		<line id="ID_1cb" vector-effect="non-scaling-stroke" class="st6" x1="193.5" y1="-252" x2="193.5" y2="-488.1"/>
		<line id="ID_1d2" vector-effect="non-scaling-stroke" class="st6" x1="358.5" y1="-163.9" x2="361.3" y2="-168.7"/>
		<line id="ID_1d4" vector-effect="non-scaling-stroke" class="st6" x1="358.5" y1="-163.9" x2="355.7" y2="-168.7"/>
		<line id="ID_1d6" vector-effect="non-scaling-stroke" class="st6" x1="358.5" y1="-248.8" x2="361.3" y2="-243.9"/>
		<line id="ID_1d8" vector-effect="non-scaling-stroke" class="st6" x1="358.5" y1="-248.8" x2="355.7" y2="-243.9"/>
		<line id="ID_1da" vector-effect="non-scaling-stroke" class="st6" x1="358.5" y1="-167.1" x2="358.5" y2="-245.5"/>
		<line id="ID_1e1" vector-effect="non-scaling-stroke" class="st6" x1="326.9" y1="-51.8" x2="329.7" y2="-56.7"/>
		<line id="ID_1e3" vector-effect="non-scaling-stroke" class="st6" x1="326.9" y1="-51.8" x2="324.1" y2="-56.7"/>
		<line id="ID_1e5" vector-effect="non-scaling-stroke" class="st6" x1="326.9" y1="-79" x2="329.7" y2="-74.1"/>
		<line id="ID_1e7" vector-effect="non-scaling-stroke" class="st6" x1="326.9" y1="-79" x2="324.1" y2="-74.1"/>
		<line id="ID_1e9" vector-effect="non-scaling-stroke" class="st6" x1="326.9" y1="-55" x2="326.9" y2="-75.7"/>
		<line id="ID_1f0" vector-effect="non-scaling-stroke" class="st6" x1="496.7" y1="-163.9" x2="499.5" y2="-168.7"/>
		<line id="ID_1f2" vector-effect="non-scaling-stroke" class="st6" x1="496.7" y1="-163.9" x2="493.9" y2="-168.7"/>
		<line id="ID_1f4" vector-effect="non-scaling-stroke" class="st6" x1="496.7" y1="-180" x2="499.5" y2="-175.2"/>
		<line id="ID_1f6" vector-effect="non-scaling-stroke" class="st6" x1="496.7" y1="-180" x2="493.9" y2="-175.2"/>
		<line id="ID_1f8" vector-effect="non-scaling-stroke" class="st6" x1="496.7" y1="-167.1" x2="496.7" y2="-176.8"/>
		<line id="ID_1ff" vector-effect="non-scaling-stroke" class="st6" x1="399.5" y1="-186.8" x2="402.3" y2="-191.7"/>
		<line id="ID_201" vector-effect="non-scaling-stroke" class="st6" x1="399.5" y1="-186.8" x2="396.7" y2="-191.7"/>
		<line id="ID_203" vector-effect="non-scaling-stroke" class="st6" x1="399.5" y1="-211.9" x2="402.3" y2="-207"/>
		<line id="ID_205" vector-effect="non-scaling-stroke" class="st6" x1="399.5" y1="-211.9" x2="396.7" y2="-207"/>
		<line id="ID_207" vector-effect="non-scaling-stroke" class="st6" x1="399.5" y1="-190.1" x2="399.5" y2="-208.6"/>
		<line id="ID_20e" vector-effect="non-scaling-stroke" class="st6" x1="387" y1="-107.7" x2="391.8" y2="-104.9"/>
		<line id="ID_210" vector-effect="non-scaling-stroke" class="st6" x1="387" y1="-107.7" x2="391.8" y2="-110.5"/>
		<line id="ID_212" vector-effect="non-scaling-stroke" class="st6" x1="460.1" y1="-107.7" x2="455.2" y2="-104.9"/>
		<line id="ID_214" vector-effect="non-scaling-stroke" class="st6" x1="460.1" y1="-107.7" x2="455.2" y2="-110.5"/>
		<line id="ID_216" vector-effect="non-scaling-stroke" class="st6" x1="390.2" y1="-107.7" x2="423.5" y2="-107.7"/>
		<line id="ID_218" vector-effect="non-scaling-stroke" class="st6" x1="456.8" y1="-107.7" x2="423.5" y2="-107.7"/>
		<line id="ID_21f" vector-effect="non-scaling-stroke" class="st6" x1="412.6" y1="-140.9" x2="417.5" y2="-138.1"/>
		<line id="ID_221" vector-effect="non-scaling-stroke" class="st6" x1="412.6" y1="-140.9" x2="417.5" y2="-143.7"/>
		<line id="ID_223" vector-effect="non-scaling-stroke" class="st6" x1="434.4" y1="-140.9" x2="429.6" y2="-138.1"/>
		<line id="ID_225" vector-effect="non-scaling-stroke" class="st6" x1="434.4" y1="-140.9" x2="429.6" y2="-143.7"/>
		<line id="ID_227" vector-effect="non-scaling-stroke" class="st6" x1="415.8" y1="-140.9" x2="423.5" y2="-140.9"/>
		<line id="ID_229" vector-effect="non-scaling-stroke" class="st6" x1="431.2" y1="-140.9" x2="423.5" y2="-140.9"/>
		<line id="ID_230" vector-effect="non-scaling-stroke" class="st6" x1="447.5" y1="-211.9" x2="450.3" y2="-216.7"/>
		<line id="ID_232" vector-effect="non-scaling-stroke" class="st6" x1="447.5" y1="-211.9" x2="444.7" y2="-216.7"/>
		<line id="ID_234" vector-effect="non-scaling-stroke" class="st6" x1="447.5" y1="-248.8" x2="450.3" y2="-243.9"/>
		<line id="ID_236" vector-effect="non-scaling-stroke" class="st6" x1="447.5" y1="-248.8" x2="444.7" y2="-243.9"/>
		<line id="ID_238" vector-effect="non-scaling-stroke" class="st6" x1="447.5" y1="-215.1" x2="447.5" y2="-245.5"/>
		<line id="ID_23f" vector-effect="non-scaling-stroke" class="st6" x1="665.9" y1="-90.3" x2="668.7" y2="-95.1"/>
		<line id="ID_241" vector-effect="non-scaling-stroke" class="st6" x1="665.9" y1="-90.3" x2="663.1" y2="-95.1"/>
		<line id="ID_243" vector-effect="non-scaling-stroke" class="st6" x1="665.9" y1="-119.4" x2="668.7" y2="-114.5"/>
		<line id="ID_245" vector-effect="non-scaling-stroke" class="st6" x1="665.9" y1="-119.4" x2="663.1" y2="-114.5"/>
		<line id="ID_247" vector-effect="non-scaling-stroke" class="st6" x1="665.9" y1="-93.5" x2="665.9" y2="-116.2"/>
		<line id="ID_24e" vector-effect="non-scaling-stroke" class="st6" x1="805.9" y1="-90.3" x2="808.7" y2="-95.1"/>
		<line id="ID_250" vector-effect="non-scaling-stroke" class="st6" x1="805.9" y1="-90.3" x2="803.1" y2="-95.1"/>
		<line id="ID_252" vector-effect="non-scaling-stroke" class="st6" x1="805.9" y1="-104.8" x2="808.7" y2="-100"/>
		<line id="ID_254" vector-effect="non-scaling-stroke" class="st6" x1="805.9" y1="-104.8" x2="803.1" y2="-100"/>
		<line id="ID_256" vector-effect="non-scaling-stroke" class="st6" x1="805.9" y1="-93.5" x2="805.9" y2="-101.6"/>
		<line id="ID_25d" vector-effect="non-scaling-stroke" class="st6" x1="220.2" y1="-190.5" x2="223" y2="-195.4"/>
		<line id="ID_25f" vector-effect="non-scaling-stroke" class="st6" x1="220.2" y1="-190.5" x2="217.4" y2="-195.4"/>
		<line id="ID_261" vector-effect="non-scaling-stroke" class="st6" x1="220.2" y1="-248.8" x2="223" y2="-243.9"/>
		<line id="ID_263" vector-effect="non-scaling-stroke" class="st6" x1="220.2" y1="-248.8" x2="217.4" y2="-243.9"/>
		<line id="ID_265" vector-effect="non-scaling-stroke" class="st6" x1="220.2" y1="-193.8" x2="220.2" y2="-245.5"/>
	</g>
	<g id="cuttingLine">
		<path id="ID_5d" vector-effect="non-scaling-stroke" class="st7" d="M640.9-248.2c0.3-0.5,1-0.7,1.5-0.4c0.3,0.2,0.5,0.6,0.5,0.9"
			/>
		<path id="ID_61" vector-effect="non-scaling-stroke" class="st7" d="M515.2-239.5c-0.3-0.3-0.5-0.7-0.5-1.1"/>
		<path id="ID_65" vector-effect="non-scaling-stroke" class="st7" d="M518-236.7c0.3,0.3,0.4,0.6,0.5,1"/>
		<path id="ID_7f" vector-effect="non-scaling-stroke" class="st7" d="M332.4-240.7c0,0.4-0.2,0.8-0.5,1.1"/>
		<path id="ID_83" vector-effect="non-scaling-stroke" class="st7" d="M328.6-235.7c0-0.4,0.2-0.8,0.5-1"/>
		<path id="ID_9b" vector-effect="non-scaling-stroke" class="st7" d="M350.4-163.9c-8.9,0-16.2-7.2-16.2-16.2"/>
		<path id="ID_9f" vector-effect="non-scaling-stroke" class="st7" d="M512.8-180c0,8.9-7.2,16.2-16.2,16.2"/>
		<path id="b3" vector-effect="non-scaling-stroke" class="st7" d="M334.2-147.7c0-8.9,7.2-16.2,16.2-16.2"/>
		<path id="b7" vector-effect="non-scaling-stroke" class="st7" d="M496.7-163.9c8.9,0,16.2,7.2,16.2,16.2"/>
		<path id="db" vector-effect="non-scaling-stroke" class="st7" d="M399.5-186.8c-6.9,0-12.5-5.6-12.5-12.5
			c0-6.9,5.6-12.5,12.5-12.5"/>
		<path id="df" vector-effect="non-scaling-stroke" class="st7" d="M447.5-211.9c6.9,0,12.5,5.6,12.5,12.5c0,6.9-5.6,12.5-12.5,12.5
			"/>
		<path id="e3" vector-effect="non-scaling-stroke" class="st7" d="M434.4-186.8c0,6-4.9,10.9-10.9,10.9s-10.9-4.9-10.9-10.9"/>
		<path id="f3" vector-effect="non-scaling-stroke" class="st7" d="M399.5-115.8c-6.9,0-12.5-5.6-12.5-12.5s5.6-12.5,12.5-12.5"/>
		<path id="f7" vector-effect="non-scaling-stroke" class="st7" d="M447.5-140.9c6.9,0,12.5,5.6,12.5,12.5s-5.6,12.5-12.5,12.5"/>
		<path id="fb" vector-effect="non-scaling-stroke" class="st7" d="M412.6-140.9c0-6,4.9-10.9,10.9-10.9s10.9,4.9,10.9,10.9"/>
		<path id="ID_129" vector-effect="non-scaling-stroke" class="st7" d="M655.9-119.4c0,0.8-0.7,1.5-1.5,1.5l0,0"/>
		<path id="ID_12d" vector-effect="non-scaling-stroke" class="st7" d="M809.4-117.9c-0.8,0-1.5-0.7-1.5-1.5"/>
		<path id="ID_131" vector-effect="non-scaling-stroke" class="st7" d="M657.9-90.3c-8,0-14.6-6.5-14.6-14.6"/>
		<path id="ID_135" vector-effect="non-scaling-stroke" class="st7" d="M820.4-104.8c0,8-6.5,14.6-14.6,14.6"/>
		<path id="ID_185" vector-effect="non-scaling-stroke" class="st7" d="M335.4-491.8c-0.6,0.6-1.7,0.6-2.3,0c-0.3-0.3-0.4-0.6-0.5-1
			"/>
		<path id="ID_195" vector-effect="non-scaling-stroke" class="st7" d="M644.1-491.8c-0.6,0.6-1.7,0.6-2.3,0c-0.3-0.3-0.4-0.6-0.5-1
			"/>
		<path id="ID_23" vector-effect="non-scaling-stroke" class="st7" d="M204.9-370L204.9-370L204.9-370L204.9-370L204.9-370z"/>
		<path id="cb" vector-effect="non-scaling-stroke" class="st7" d="M335-65.4L335-65.4L335-65.4L335-65.4L335-65.4z"/>
		<line id="ID_1b" vector-effect="non-scaling-stroke" class="st7" x1="204.9" y1="-248.8" x2="204.9" y2="-370"/>
		<line id="ID_1f" vector-effect="non-scaling-stroke" class="st7" x1="204.9" y1="-370" x2="204.9" y2="-491.3"/>
		<line id="ID_49" vector-effect="non-scaling-stroke" class="st7" x1="514.7" y1="-248.8" x2="514.7" y2="-240.7"/>
		<line id="ID_4d" vector-effect="non-scaling-stroke" class="st7" x1="515.2" y1="-239.5" x2="518" y2="-236.7"/>
		<line id="ID_51" vector-effect="non-scaling-stroke" class="st7" x1="518.4" y1="-235.7" x2="521.6" y2="-190.5"/>
		<line id="ID_53" vector-effect="non-scaling-stroke" class="st7" x1="521.6" y1="-190.5" x2="635.7" y2="-190.5"/>
		<line id="ID_55" vector-effect="non-scaling-stroke" class="st7" x1="635.7" y1="-190.5" x2="638.9" y2="-244.7"/>
		<line id="ID_59" vector-effect="non-scaling-stroke" class="st7" x1="638.9" y1="-244.7" x2="640.9" y2="-248.2"/>
		<line id="ID_6b" vector-effect="non-scaling-stroke" class="st7" x1="332.4" y1="-248.8" x2="332.4" y2="-240.7"/>
		<line id="ID_6f" vector-effect="non-scaling-stroke" class="st7" x1="331.9" y1="-239.5" x2="329.1" y2="-236.7"/>
		<line id="ID_73" vector-effect="non-scaling-stroke" class="st7" x1="328.6" y1="-235.7" x2="325.4" y2="-190.5"/>
		<line id="ID_75" vector-effect="non-scaling-stroke" class="st7" x1="325.4" y1="-190.5" x2="212.1" y2="-190.5"/>
		<line id="ID_77" vector-effect="non-scaling-stroke" class="st7" x1="212.1" y1="-190.5" x2="208.9" y2="-244.7"/>
		<line id="ID_7b" vector-effect="non-scaling-stroke" class="st7" x1="208.9" y1="-244.7" x2="204.9" y2="-248.8"/>
		<line id="ID_87" vector-effect="non-scaling-stroke" class="st7" x1="820.8" y1="-248" x2="846.7" y2="-252.6"/>
		<line id="ID_89" vector-effect="non-scaling-stroke" class="st7" x1="846.7" y1="-252.6" x2="846.7" y2="-486.7"/>
		<line id="ID_8b" vector-effect="non-scaling-stroke" class="st7" x1="846.7" y1="-486.7" x2="820.8" y2="-491.3"/>
		<line id="ID_93" vector-effect="non-scaling-stroke" class="st7" x1="334.2" y1="-248.8" x2="334.2" y2="-180"/>
		<line id="ID_97" vector-effect="non-scaling-stroke" class="st7" x1="512.8" y1="-180" x2="512.8" y2="-248.8"/>
		<line id="a7" vector-effect="non-scaling-stroke" class="st7" x1="335" y1="-79" x2="334.2" y2="-80.8"/>
		<line id="a9" vector-effect="non-scaling-stroke" class="st7" x1="334.2" y1="-80.8" x2="334.2" y2="-147.7"/>
		<line id="ad" vector-effect="non-scaling-stroke" class="st7" x1="512.8" y1="-147.7" x2="512.8" y2="-80.8"/>
		<line id="af" vector-effect="non-scaling-stroke" class="st7" x1="512.8" y1="-80.8" x2="512.1" y2="-79"/>
		<line id="bb" vector-effect="non-scaling-stroke" class="st7" x1="335" y1="-51.8" x2="512.1" y2="-51.8"/>
		<line id="bf" vector-effect="non-scaling-stroke" class="st7" x1="512.1" y1="-51.8" x2="512.1" y2="-79"/>
		<line id="c3" vector-effect="non-scaling-stroke" class="st7" x1="335" y1="-51.8" x2="335" y2="-65.4"/>
		<line id="c7" vector-effect="non-scaling-stroke" class="st7" x1="335" y1="-65.4" x2="335" y2="-79"/>
		<line id="cf" vector-effect="non-scaling-stroke" class="st7" x1="399.5" y1="-211.9" x2="447.5" y2="-211.9"/>
		<line id="d3" vector-effect="non-scaling-stroke" class="st7" x1="447.5" y1="-186.8" x2="434.4" y2="-186.8"/>
		<line id="d7" vector-effect="non-scaling-stroke" class="st7" x1="399.5" y1="-186.8" x2="412.6" y2="-186.8"/>
		<line id="e7" vector-effect="non-scaling-stroke" class="st7" x1="399.5" y1="-115.8" x2="447.5" y2="-115.8"/>
		<line id="eb" vector-effect="non-scaling-stroke" class="st7" x1="447.5" y1="-140.9" x2="434.4" y2="-140.9"/>
		<line id="ef" vector-effect="non-scaling-stroke" class="st7" x1="399.5" y1="-140.9" x2="412.6" y2="-140.9"/>
		<line id="ID_103" vector-effect="non-scaling-stroke" class="st7" x1="642.9" y1="-247.7" x2="642.9" y2="-126"/>
		<line id="ID_105" vector-effect="non-scaling-stroke" class="st7" x1="642.9" y1="-126" x2="643.3" y2="-117.9"/>
		<line id="ID_107" vector-effect="non-scaling-stroke" class="st7" x1="643.3" y1="-117.9" x2="654.4" y2="-117.9"/>
		<line id="ID_10b" vector-effect="non-scaling-stroke" class="st7" x1="820.4" y1="-117.9" x2="809.4" y2="-117.9"/>
		<line id="ID_10f" vector-effect="non-scaling-stroke" class="st7" x1="655.9" y1="-119.4" x2="655.9" y2="-120.1"/>
		<line id="ID_113" vector-effect="non-scaling-stroke" class="st7" x1="807.9" y1="-119.4" x2="807.9" y2="-120.1"/>
		<line id="ID_117" vector-effect="non-scaling-stroke" class="st7" x1="657.9" y1="-90.3" x2="805.9" y2="-90.3"/>
		<line id="ID_11b" vector-effect="non-scaling-stroke" class="st7" x1="643.3" y1="-117.9" x2="643.3" y2="-104.8"/>
		<line id="ID_11f" vector-effect="non-scaling-stroke" class="st7" x1="820.4" y1="-117.9" x2="820.4" y2="-104.8"/>
		<line id="ID_123" vector-effect="non-scaling-stroke" class="st7" x1="820.4" y1="-117.9" x2="820.8" y2="-126"/>
		<line id="ID_125" vector-effect="non-scaling-stroke" class="st7" x1="820.8" y1="-126" x2="820.8" y2="-248"/>
		<line id="ID_139" vector-effect="non-scaling-stroke" class="st7" x1="335.4" y1="-491.8" x2="342.6" y2="-499.1"/>
		<line id="ID_13b" vector-effect="non-scaling-stroke" class="st7" x1="342.6" y1="-499.1" x2="342.3" y2="-500"/>
		<line id="ID_13d" vector-effect="non-scaling-stroke" class="st7" x1="342.3" y1="-500" x2="335.8" y2="-505.2"/>
		<line id="ID_13f" vector-effect="non-scaling-stroke" class="st7" x1="335.8" y1="-505.2" x2="335.8" y2="-577"/>
		<line id="ID_141" vector-effect="non-scaling-stroke" class="st7" x1="335.8" y1="-577" x2="377.9" y2="-577"/>
		<line id="ID_143" vector-effect="non-scaling-stroke" class="st7" x1="377.9" y1="-577" x2="398.9" y2="-556"/>
		<line id="ID_145" vector-effect="non-scaling-stroke" class="st7" x1="398.9" y1="-556" x2="425.1" y2="-556"/>
		<line id="ID_147" vector-effect="non-scaling-stroke" class="st7" x1="425.1" y1="-556" x2="425.1" y2="-560.8"/>
		<line id="ID_149" vector-effect="non-scaling-stroke" class="st7" x1="425.1" y1="-560.8" x2="441.3" y2="-577"/>
		<line id="ID_14b" vector-effect="non-scaling-stroke" class="st7" x1="441.3" y1="-577" x2="505.4" y2="-577"/>
		<line id="ID_14d" vector-effect="non-scaling-stroke" class="st7" x1="505.4" y1="-577" x2="512.8" y2="-491.3"/>
		<line id="ID_159" vector-effect="non-scaling-stroke" class="st7" x1="644.1" y1="-491.8" x2="651.3" y2="-499.1"/>
		<line id="ID_15b" vector-effect="non-scaling-stroke" class="st7" x1="651.3" y1="-499.1" x2="651" y2="-500"/>
		<line id="ID_15d" vector-effect="non-scaling-stroke" class="st7" x1="651" y1="-500" x2="644.5" y2="-505.2"/>
		<line id="ID_15f" vector-effect="non-scaling-stroke" class="st7" x1="644.5" y1="-505.2" x2="644.5" y2="-577"/>
		<line id="ID_161" vector-effect="non-scaling-stroke" class="st7" x1="644.5" y1="-577" x2="686.6" y2="-577"/>
		<line id="ID_163" vector-effect="non-scaling-stroke" class="st7" x1="686.6" y1="-577" x2="707.6" y2="-556"/>
		<line id="ID_165" vector-effect="non-scaling-stroke" class="st7" x1="707.6" y1="-556" x2="733.5" y2="-556"/>
		<line id="ID_167" vector-effect="non-scaling-stroke" class="st7" x1="733.5" y1="-556" x2="733.5" y2="-560.8"/>
		<line id="ID_169" vector-effect="non-scaling-stroke" class="st7" x1="733.5" y1="-560.8" x2="749.7" y2="-577"/>
		<line id="ID_16b" vector-effect="non-scaling-stroke" class="st7" x1="749.7" y1="-577" x2="813.3" y2="-577"/>
		<line id="ID_16d" vector-effect="non-scaling-stroke" class="st7" x1="813.3" y1="-577" x2="820.8" y2="-491.3"/>
		<line id="ID_179" vector-effect="non-scaling-stroke" class="st7" x1="204.9" y1="-491.3" x2="269.5" y2="-556"/>
		<line id="ID_17b" vector-effect="non-scaling-stroke" class="st7" x1="269.5" y1="-556" x2="327.1" y2="-556"/>
		<line id="ID_17d" vector-effect="non-scaling-stroke" class="st7" x1="327.1" y1="-556" x2="332.6" y2="-492.8"/>
		<line id="ID_189" vector-effect="non-scaling-stroke" class="st7" x1="512.8" y1="-491.3" x2="577.5" y2="-556"/>
		<line id="ID_18b" vector-effect="non-scaling-stroke" class="st7" x1="577.5" y1="-556" x2="635.8" y2="-556"/>
		<line id="ID_18d" vector-effect="non-scaling-stroke" class="st7" x1="635.8" y1="-556" x2="641.3" y2="-492.8"/>
		<line id="ID_199" vector-effect="non-scaling-stroke" class="st7" x1="512.8" y1="-248.8" x2="514.7" y2="-248.8"/>
		<line id="ID_19d" vector-effect="non-scaling-stroke" class="st7" x1="332.4" y1="-248.8" x2="334.2" y2="-248.8"/>
	</g>
	<g id="ID_0">
	</g>
</g>
</svg>
