<?xml version="1.0" encoding="UTF-8"?>
<svg xmlns="http://www.w3.org/2000/svg" width="404.8mm" height="202mm" viewBox="0 0 404.8 202">
<title>Standard body strip 120</title>
<rect x="0" y="0" width="404.8" height="202" fill="#fbfaf7"/>
<g transform="translate(32 -10)">
<g id="faces" fill="rgba(255,255,255,0.78)" stroke="#222" stroke-width="0.35">
<polygon points="40,90 160,90 160,180 40,180"/>
<polygon points="0,42 120,42 120,132 0,132"/>
<polygon points="120,42 170.4,42 170.4,132 120,132"/>
<polygon points="170.4,42 290.4,42 290.4,132 170.4,132"/>
<polygon points="290.4,42 340.8,42 340.8,132 290.4,132"/>
</g>
<g id="creases" stroke="#2667aa" stroke-width="0.55" stroke-dasharray="2 1">
<line x1="120" y1="42" x2="120" y2="132"/>
<line x1="170.4" y1="42" x2="170.4" y2="132"/>
<line x1="290.4" y1="42" x2="290.4" y2="132"/>
</g>
<g id="geometry-primitives" fill="none" stroke-width="0.5">
</g>
<g id="anchors" stroke="#138a4f" fill="#138a4f" stroke-width="0.35">
<line x1="40" y1="90" x2="160" y2="90"/>
<circle cx="40" cy="90" r="1.1"/>
<circle cx="160" cy="90" r="1.1"/>
<line x1="160" y1="90" x2="160" y2="180"/>
<circle cx="160" cy="90" r="1.1"/>
<circle cx="160" cy="180" r="1.1"/>
<line x1="40" y1="180" x2="160" y2="180"/>
<circle cx="40" cy="180" r="1.1"/>
<circle cx="160" cy="180" r="1.1"/>
<line x1="40" y1="90" x2="40" y2="180"/>
<circle cx="40" cy="90" r="1.1"/>
<circle cx="40" cy="180" r="1.1"/>
<line x1="0" y1="42" x2="120" y2="42"/>
<circle cx="0" cy="42" r="1.1"/>
<circle cx="120" cy="42" r="1.1"/>
<line x1="120" y1="42" x2="120" y2="132"/>
<circle cx="120" cy="42" r="1.1"/>
<circle cx="120" cy="132" r="1.1"/>
<line x1="0" y1="132" x2="120" y2="132"/>
<circle cx="0" cy="132" r="1.1"/>
<circle cx="120" cy="132" r="1.1"/>
<line x1="0" y1="42" x2="0" y2="132"/>
<circle cx="0" cy="42" r="1.1"/>
<circle cx="0" cy="132" r="1.1"/>
<line x1="120" y1="42" x2="170.4" y2="42"/>
<circle cx="120" cy="42" r="1.1"/>
<circle cx="170.4" cy="42" r="1.1"/>
<line x1="170.4" y1="42" x2="170.4" y2="132"/>
<circle cx="170.4" cy="42" r="1.1"/>
<circle cx="170.4" cy="132" r="1.1"/>
<line x1="120" y1="132" x2="170.4" y2="132"/>
<circle cx="120" cy="132" r="1.1"/>
<circle cx="170.4" cy="132" r="1.1"/>
<line x1="120" y1="42" x2="120" y2="132"/>
<circle cx="120" cy="42" r="1.1"/>
<circle cx="120" cy="132" r="1.1"/>
<line x1="170.4" y1="42" x2="290.4" y2="42"/>
<circle cx="170.4" cy="42" r="1.1"/>
<circle cx="290.4" cy="42" r="1.1"/>
<line x1="290.4" y1="42" x2="290.4" y2="132"/>
<circle cx="290.4" cy="42" r="1.1"/>
<circle cx="290.4" cy="132" r="1.1"/>
<line x1="170.4" y1="132" x2="290.4" y2="132"/>
<circle cx="170.4" cy="132" r="1.1"/>
<circle cx="290.4" cy="132" r="1.1"/>
<line x1="170.4" y1="42" x2="170.4" y2="132"/>
<circle cx="170.4" cy="42" r="1.1"/>
<circle cx="170.4" cy="132" r="1.1"/>
<line x1="290.4" y1="42" x2="340.8" y2="42"/>
<circle cx="290.4" cy="42" r="1.1"/>
<circle cx="340.8" cy="42" r="1.1"/>
<line x1="340.8" y1="42" x2="340.8" y2="132"/>
<circle cx="340.8" cy="42" r="1.1"/>
<circle cx="340.8" cy="132" r="1.1"/>
<line x1="290.4" y1="132" x2="340.8" y2="132"/>
<circle cx="290.4" cy="132" r="1.1"/>
<circle cx="340.8" cy="132" r="1.1"/>
<line x1="290.4" y1="42" x2="290.4" y2="132"/>
<circle cx="290.4" cy="42" r="1.1"/>
<circle cx="290.4" cy="132" r="1.1"/>
</g>
<g id="labels" fill="#111" style="font-family:Arial,sans-serif;font-size:4px;paint-order:stroke;stroke:#fff;stroke-width:1.2px;">
<text x="100" y="135" text-anchor="middle">host</text>
<text x="60" y="87" text-anchor="middle">standardBodyStrip.back</text>
<text x="145.2" y="87" text-anchor="middle">standardBodyStrip.sideB</text>
<text x="230.4" y="87" text-anchor="middle">standardBodyStrip.front</text>
<text x="315.6" y="87" text-anchor="middle">standardBodyStrip.sideA</text>
<text x="120" y="85" text-anchor="middle">standardBodyStrip.crease.standardBodyStrip.back.standardBodyStrip.sideB</text>
<text x="170.4" y="85" text-anchor="middle">standardBodyStrip.crease.standardBodyStrip.sideB.standardBodyStrip.front</text>
<text x="290.4" y="85" text-anchor="middle">standardBodyStrip.crease.standardBodyStrip.front.standardBodyStrip.sideA</text>
</g>
</g>
</svg>